<svg xmlns="http://www.w3.org/2000/svg" viewBox="0 0 64 64" x="0px" y="0px"><title>_</title><g data-name="Layer 35"><path d="M58.9,27.145a1.113,1.113,0,0,1-.128-.008,1,1,0,0,1-.865-1.12,10.893,10.893,0,0,0-9.085-12.331,1,1,0,0,1,.27-1.983,12.9,12.9,0,0,1,10.8,14.569A1,1,0,0,1,58.9,27.145Z"/><path d="M54.612,26.563a.949.949,0,0,1-.19-.019,1,1,0,0,1-.792-1.171,6.093,6.093,0,0,0-1.078-4.939,5.963,5.963,0,0,0-4.39-2.283,1,1,0,1,1,.143-1.994,7.932,7.932,0,0,1,5.834,3.06,8.065,8.065,0,0,1,1.454,6.535A1,1,0,0,1,54.612,26.563Z"/><path d="M14.706,56.5a.916.916,0,0,1-.164-.014A12.906,12.906,0,0,1,4.168,41.605a1,1,0,0,1,1.975.313,10.9,10.9,0,0,0,8.725,12.6,1,1,0,0,1-.162,1.986Z"/><path d="M15.555,52.063c-.034,0-.068,0-.1-.005a7.94,7.94,0,0,1-5.742-3.23,8.069,8.069,0,0,1-1.265-6.575,1,1,0,1,1,1.951.435,6.1,6.1,0,0,0,.935,4.969,5.962,5.962,0,0,0,4.322,2.41,1,1,0,0,1-.1,2Z"/><path d="M31.023,54.783a12.731,12.731,0,0,1-5.983-1.562c-2.851-1.487-4.4-3.144-7.409-9.494-1.389-2.927-1.638-3.487-2.152-4.644-.3-.665-.681-1.529-1.424-3.163a46.153,46.153,0,0,0-2.714-5.126c-.68-1.141-1.382-2.319-2.267-4.126-.527-1.076-1.925-3.934.47-5.278.769-.432,2.761-1.116,4.6,1.86.93,1.5,1.451,2.463,1.91,3.312a30.647,30.647,0,0,0,1.868,3.115c-.134-.349-.269-.7-.4-1.041-.64-1.664-1.366-3.55-2.048-5.507l-.3-.877c-.358-1.042-.643-1.865-1.289-3.523-.384-.988-.935-2.85-.306-4.245a2.575,2.575,0,0,1,1.493-1.378c1.263-.464,3.082-.375,4.571,2.7,1.781,3.673,2.311,4.942,3.269,7.385.311.791.756,1.785,1.213,2.732-.241-1.045-.576-2.357-1.033-3.982a47.088,47.088,0,0,1-2.1-9.2c-.4-2.938.45-4.879,2.272-5.188,3.038-.535,4.072,2.83,4.568,4.438l.063.2c.849,2.725,1.241,4.282,1.657,5.93.206.819.422,1.678.709,2.737.106.395.236.911.381,1.484.053.213.115.459.183.725-.019-.236-.041-.484-.065-.747a56.691,56.691,0,0,1-.181-9.7c.235-3.752,2.089-4.323,2.876-4.394,2.109-.178,3.206,1.932,3.52,3.987l.039.255a67.716,67.716,0,0,1,.906,8.473,65.116,65.116,0,0,0,.8,8.208,31.765,31.765,0,0,0,1.187,4.986c.24-.743.484-1.779.639-2.444.189-.807.352-1.5.523-1.995,1.4-4,3.1-5.537,3.765-6.012.749-.538,3.025-1.64,4.517-.318a2.249,2.249,0,0,1,.67,2.522c-.229.587-.449,1.106-.662,1.609a26.1,26.1,0,0,0-1.4,3.926,63.754,63.754,0,0,0-1.492,7.2,30.672,30.672,0,0,1-1.267,5.555c-1.339,4.017-2.98,6.758-7.413,8.873A15.668,15.668,0,0,1,31.023,54.783ZM10.937,23.011a.815.815,0,0,0-.415.123c-.53.3-.429,1.066.348,2.654.85,1.733,1.53,2.877,2.19,3.983a48.658,48.658,0,0,1,2.815,5.321c.747,1.641,1.134,2.51,1.431,3.178.509,1.147.757,1.7,2.132,4.6,2.952,6.225,4.255,7.394,6.526,8.578,3.533,1.842,6.811,1.782,10.967-.2,3.809-1.818,5.18-4.109,6.378-7.7A28.649,28.649,0,0,0,44.5,38.313a66.523,66.523,0,0,1,1.534-7.4,28.03,28.03,0,0,1,1.489-4.195c.206-.487.419-.99.64-1.559.048-.122-.091-.259-.135-.3-.357-.312-1.474.054-2.026.449-.4.286-1.8,1.492-3.039,5.047-.137.388-.3,1.07-.465,1.792-.666,2.838-1.1,4.456-2.326,4.661-1.514.251-2.384-1.587-3.416-7.305a66.784,66.784,0,0,1-.829-8.448,66.45,66.45,0,0,0-.888-8.288L35,12.513c-.095-.62-.551-2.367-1.362-2.3-.543.049-.97,1.064-1.061,2.526a54.079,54.079,0,0,0,.177,9.4c.479,5.245.26,6.743-1.022,6.968-1.262.232-1.675-.905-3.028-6.277-.141-.56-.268-1.064-.373-1.45-.289-1.072-.508-1.941-.717-2.771-.426-1.69-.794-3.15-1.628-5.822l-.064-.209C25.3,10.552,24.688,9.332,23.6,9.521c-.689.118-.806,1.611-.624,2.949A45.43,45.43,0,0,0,25,21.354c2.21,7.859,1.717,8.564,1.391,9.031a1.178,1.178,0,0,1-.873.5l-.057,0c-1.383,0-3.16-3.78-4.415-6.975-.939-2.391-1.457-3.634-3.207-7.242-1.012-2.083-1.762-1.812-2.081-1.692a.573.573,0,0,0-.361.324,4.18,4.18,0,0,0,.346,2.7c.661,1.694.951,2.534,1.318,3.6l.3.87c.672,1.926,1.392,3.8,2.028,5.446,1.868,4.854,2.312,6.008,1.12,6.576-.527.252-1.244.583-3.842-3.114a33.291,33.291,0,0,1-2.373-3.866c-.445-.825-.95-1.759-1.833-3.181C11.793,23.251,11.278,23.011,10.937,23.011Z"/></g></svg>