<svg xmlns="http://www.w3.org/2000/svg" xmlns:xlink="http://www.w3.org/1999/xlink" version="1.1" x="0px" y="0px" viewBox="7.5 7.5 50 62.5" enable-background="new 7.5 7.5 50 50" xml:space="preserve"><path d="M33,15.624v-1.54c1.494-0.241,2.643-1.53,2.643-3.091c0-1.732-1.41-3.142-3.143-3.142s-3.142,1.409-3.142,3.142  c0,1.561,1.147,2.85,2.642,3.091v1.54c-11.223,0.269-20.275,9.463-20.275,20.749c0,11.456,9.32,20.775,20.775,20.775  c11.456,0,20.775-9.319,20.775-20.775C53.275,25.087,44.224,15.893,33,15.624z M30.358,10.993c0-1.181,0.961-2.142,2.142-2.142  c1.182,0,2.143,0.961,2.143,2.142s-0.961,2.142-2.143,2.142C31.319,13.135,30.358,12.174,30.358,10.993z M32.5,56.148  c-10.904,0-19.775-8.871-19.775-19.775c0-10.904,8.871-19.774,19.775-19.774s19.775,8.871,19.775,19.774  C52.275,47.277,43.404,56.148,32.5,56.148z"/><path d="M32.5,19.636c-9.229,0-16.738,7.508-16.738,16.737c0,9.229,7.509,16.738,16.738,16.738s16.738-7.509,16.738-16.738  C49.238,27.144,41.729,19.636,32.5,19.636z M32.5,52.111c-8.678,0-15.738-7.061-15.738-15.738s7.06-15.737,15.738-15.737  c8.678,0,15.738,7.06,15.738,15.737S41.178,52.111,32.5,52.111z"/><path d="M45.456,35.873h-8.978c-0.092-0.734-0.377-1.402-0.811-1.96l2.164-2.165c0.195-0.195,0.195-0.512,0-0.707  s-0.512-0.195-0.707,0l-2.164,2.165c-0.558-0.434-1.227-0.719-1.961-0.812v-8.978c0-0.276-0.224-0.5-0.5-0.5s-0.5,0.224-0.5,0.5  v8.978c-0.735,0.093-1.403,0.377-1.961,0.812l-2.164-2.164c-0.195-0.195-0.512-0.195-0.707,0s-0.195,0.512,0,0.707l2.164,2.164  c-0.434,0.558-0.718,1.226-0.811,1.96h-8.978c-0.276,0-0.5,0.224-0.5,0.5s0.224,0.5,0.5,0.5h8.978  c0.092,0.734,0.377,1.403,0.811,1.961l-2.165,2.164c-0.195,0.195-0.195,0.512,0,0.707c0.098,0.098,0.226,0.146,0.354,0.146  s0.256-0.049,0.354-0.146l2.165-2.164c0.557,0.434,1.226,0.719,1.96,0.811v8.978c0,0.276,0.224,0.5,0.5,0.5s0.5-0.224,0.5-0.5  v-8.978c0.734-0.092,1.403-0.377,1.96-0.811l2.165,2.164c0.098,0.098,0.226,0.146,0.354,0.146s0.256-0.049,0.354-0.146  c0.195-0.195,0.195-0.512,0-0.707l-2.165-2.164c0.435-0.558,0.72-1.226,0.812-1.961h8.978c0.276,0,0.5-0.224,0.5-0.5  S45.732,35.873,45.456,35.873z M32.5,39.402c-1.67,0-3.029-1.359-3.029-3.029c0-1.669,1.357-3.027,3.026-3.029  c0.001,0,0.002,0.001,0.003,0.001s0.002-0.001,0.003-0.001c1.668,0.002,3.026,1.36,3.026,3.029  C35.529,38.043,34.17,39.402,32.5,39.402z"/></svg>