<svg xmlns="http://www.w3.org/2000/svg" data-name="Layer 1" viewBox="0 0 100 125" x="0px" y="0px"><title>TiNY2_EXTRAS</title><path d="M92.19,5H61.25a2.81,2.81,0,0,0-2,4.8l7.15,7.15-7.46,7.44,0,0L49.8,33.54l-.09.09A37,37,0,0,0,41.54,47a48,48,0,0,0-2.79,16.38V92.19A2.81,2.81,0,0,0,41.56,95H58.44a2.81,2.81,0,0,0,2.81-2.81V63.36c0-6.9,2.41-11.82,4.46-13.91L82.32,32.86l7.88,7.88a2.81,2.81,0,0,0,4.8-2V7.81A2.81,2.81,0,0,0,92.19,5ZM89.38,32l-5.07-5.07a2.81,2.81,0,0,0-4,0L61.71,45.49c-1.43,1.46-6.09,7.06-6.09,17.87v26H44.38v-26a42.4,42.4,0,0,1,2.45-14.46,31.41,31.41,0,0,1,6.93-11.36l9.13-9.13,0,0,9.47-9.45a2.81,2.81,0,0,0,0-4L68,10.63H89.38Z"/><path d="M44.86,28.19l-3.78-3.78,0,0-7.46-7.44L40.74,9.8a2.81,2.81,0,0,0-2-4.8H7.81A2.81,2.81,0,0,0,5,7.81V38.75a2.81,2.81,0,0,0,4.8,2l7.88-7.88L32.49,47.64a2.81,2.81,0,0,0,4.66-1.11q.24-.74.5-1.46A44.23,44.23,0,0,1,45,32,2.81,2.81,0,0,0,44.86,28.19ZM33.37,40.58,19.67,26.89a2.81,2.81,0,0,0-4,0L10.63,32V10.63H32L27.62,15a2.81,2.81,0,0,0,0,4l9.47,9.44,0,0,2,2A50.19,50.19,0,0,0,33.37,40.58Z"/><text x="0" y="115" fill="#000000" font-size="5px" font-weight="bold" font-family="'Helvetica Neue', Helvetica, Arial-Unicode, Arial, Sans-serif">Created by Wouter Buning</text><text x="0" y="120" fill="#000000" font-size="5px" font-weight="bold" font-family="'Helvetica Neue', Helvetica, Arial-Unicode, Arial, Sans-serif">from the Noun Project</text></svg>