<svg xmlns="http://www.w3.org/2000/svg" xmlns:xlink="http://www.w3.org/1999/xlink" version="1.1" x="0px" y="0px" viewBox="0 0 1000 1000" enable-background="new 0 0 1000 1000" xml:space="preserve"><path d="M759.016,348.452l75.58-64.781l-75.58-64.783h-226.16v-58.479c0-10.902-3.651-21.221-10.28-29.053  c-6.938-8.201-16.691-12.904-26.759-12.904c-20.416,0-37.026,18.822-37.026,41.957v58.479h-53.734v129.564h53.734v24.752H240.982  l-75.58,64.783l75.58,64.781h217.808v322.344h-53.734v53.602H270.246c-5.523,0-10,4.479-10,10c0,5.523,4.477,10,10,10h134.811  h179.647h138.412c5.522,0,10-4.477,10-10c0-5.521-4.478-10-10-10H584.704v-53.602h-51.848V502.769h62.087V373.204h-62.087v-24.752  H759.016z M478.791,160.409c0-12.107,7.639-21.957,17.026-21.957c4.233,0,8.314,2.068,11.491,5.822  c3.578,4.229,5.548,9.957,5.548,16.135v58.479h-34.065V160.409z M425.056,328.452v-89.564h33.734h74.065h218.762l52.246,44.783  l-52.246,44.781H532.856h-74.065H425.056z M564.704,845.112v33.602H425.056v-33.602h33.734h74.065H564.704z M512.856,825.112  h-34.065V502.769h34.065V825.112z M574.943,393.204v89.564h-42.087h-74.065h-210.41l-52.247-44.781l52.247-44.783h210.41h74.065  H574.943z M512.856,373.204h-34.065v-24.752h34.065V373.204z"/></svg>