<svg xmlns="http://www.w3.org/2000/svg" xmlns:xlink="http://www.w3.org/1999/xlink" viewBox="0 0 100 100" version="1.1" x="0px" y="0px"><title>Icons Copy 9</title><desc>Created with Sketch.</desc><g stroke="none" stroke-width="1" fill="none" fill-rule="evenodd"><path d="M28.8590427,48.6781445 L30.0258621,49.090556 L30.0258621,73.779199 C30.0258621,76.2483542 32.0275079,78.25 34.4966631,78.25 L65.5033369,78.25 C67.9724921,78.25 69.9741379,76.2483542 69.9741379,73.779199 L69.9741379,49.090556 L71.1409573,48.6781445 C75.3666231,47.184586 78.25,43.1765387 78.25,38.6206897 C78.25,32.7312393 73.4756572,27.9568966 67.5862069,27.9568966 C66.0167994,27.9568966 64.4986387,28.2950271 63.1083857,28.9393024 L61.4990685,29.685097 L60.7750142,28.0658821 C59.0710267,24.255226 55.2817351,21.75 51.0344828,21.75 C46.46992,21.75 42.4558886,24.6444117 40.9690477,28.8817026 L40.2206658,31.0144877 L38.3432593,29.7558405 C36.6025959,28.5888682 34.557518,27.9568966 32.4137931,27.9568966 C26.5243428,27.9568966 21.75,32.7312393 21.75,38.6206897 C21.75,43.1765387 24.6333769,47.184586 28.8590427,48.6781445 Z M26.5258621,51.5064433 C21.555125,49.2352516 18.25,44.2422318 18.25,38.6206897 C18.25,30.7982427 24.5913462,24.4568966 32.4137931,24.4568966 C34.5491014,24.4568966 36.6162614,24.9313931 38.4929301,25.8244516 C40.8984857,21.2472231 45.681153,18.25 51.0344828,18.25 C56.1016053,18.25 60.6788313,20.9358464 63.1971298,25.1505257 C64.600305,24.6935639 66.0774102,24.4568966 67.5862069,24.4568966 C75.4086538,24.4568966 81.75,30.7982427 81.75,38.6206897 C81.75,44.2422318 78.444875,49.2352516 73.4741379,51.5064433 L73.4741379,73.779199 C73.4741379,78.1813508 69.9054888,81.75 65.5033369,81.75 L34.4966631,81.75 C30.0945112,81.75 26.5258621,78.1813508 26.5258621,73.779199 L26.5258621,51.5064433 Z" fill="#000000" fill-rule="nonzero"/><polygon fill="#000000" fill-rule="nonzero" points="27.5603448 72.4396552 27.5603448 68.9396552 72.4396552 68.9396552 72.4396552 72.4396552"/><path d="M37.9051724,54.137931 C37.9051724,53.1714327 38.6886741,52.387931 39.6551724,52.387931 C40.6216707,52.387931 41.4051724,53.1714327 41.4051724,54.137931 L41.4051724,60.3448276 C41.4051724,61.3113259 40.6216707,62.0948276 39.6551724,62.0948276 C38.6886741,62.0948276 37.9051724,61.3113259 37.9051724,60.3448276 L37.9051724,54.137931 Z" fill="#000000" fill-rule="nonzero"/><path d="M48.25,56.2068966 C48.25,55.2403982 49.0335017,54.4568966 50,54.4568966 C50.9664983,54.4568966 51.75,55.2403982 51.75,56.2068966 L51.75,62.4137931 C51.75,63.3802914 50.9664983,64.1637931 50,64.1637931 C49.0335017,64.1637931 48.25,63.3802914 48.25,62.4137931 L48.25,56.2068966 Z" fill="#000000" fill-rule="nonzero"/><path d="M58.5948276,54.137931 C58.5948276,53.1714327 59.3783293,52.387931 60.3448276,52.387931 C61.3113259,52.387931 62.0948276,53.1714327 62.0948276,54.137931 L62.0948276,60.3448276 C62.0948276,61.3113259 61.3113259,62.0948276 60.3448276,62.0948276 C59.3783293,62.0948276 58.5948276,61.3113259 58.5948276,60.3448276 L58.5948276,54.137931 Z" fill="#000000" fill-rule="nonzero"/></g></svg>